/* XPM */
static char * error_xpm[] = {
"64 64 153 2",
"  	c None",
". 	c #431919",
"+ 	c #4F1616",
"@ 	c #531515",
"# 	c #480909",
"$ 	c #3F0000",
"% 	c #4B0C0C",
"& 	c #541515",
"* 	c #571818",
"= 	c #6C1717",
"- 	c #F20404",
"; 	c #FF0202",
"> 	c #D80A0A",
", 	c #F60303",
"' 	c #F50404",
") 	c #6D1717",
"! 	c #F80303",
"~ 	c #FD0202",
"{ 	c #6F1717",
"] 	c #FC0202",
"^ 	c #741515",
"/ 	c #FA0202",
"( 	c #F90303",
"_ 	c #711616",
": 	c #631919",
"< 	c #971919",
"[ 	c #181818",
"} 	c #FE0101",
"| 	c #FE0202",
"1 	c #FE0F0F",
"2 	c #FE6565",
"3 	c #FED9D9",
"4 	c #FEE4E4",
"5 	c #FFAAAA",
"6 	c #FEC8C8",
"7 	c #FE9C9C",
"8 	c #FE5050",
"9 	c #FFFFFF",
"0 	c #FE5D5D",
"a 	c #FEAAAA",
"b 	c #FFE9E9",
"c 	c #FF4F4F",
"d 	c #FE6060",
"e 	c #FF6666",
"f 	c #FF0C0C",
"g 	c #FE2C2C",
"h 	c #FF0A0A",
"i 	c #FF5959",
"j 	c #FEA3A3",
"k 	c #FE2828",
"l 	c #FE9A9A",
"m 	c #FE6A6A",
"n 	c #FE4343",
"o 	c #FE9696",
"p 	c #FE4747",
"q 	c #FE7575",
"r 	c #FF2323",
"s 	c #FF9393",
"t 	c #FFB1B1",
"u 	c #FEA1A1",
"v 	c #FE3737",
"w 	c #FE1818",
"x 	c #FE6E6E",
"y 	c #FE2222",
"z 	c #FEAFAF",
"A 	c #FE3F3F",
"B 	c #FE4141",
"C 	c #FF4444",
"D 	c #FFEFEF",
"E 	c #FF4141",
"F 	c #FE9595",
"G 	c #FE1C1C",
"H 	c #FEC1C1",
"I 	c #FEDFDF",
"J 	c #FE9191",
"K 	c #FE7777",
"L 	c #FECFCF",
"M 	c #FED1D1",
"N 	c #FE2121",
"O 	c #FEEDED",
"P 	c #FE9393",
"Q 	c #FE7979",
"R 	c #FEF9F9",
"S 	c #FE3434",
"T 	c #FE3636",
"U 	c #FEF4F4",
"V 	c #FEBBBB",
"W 	c #FF5252",
"X 	c #FF2121",
"Y 	c #FE8080",
"Z 	c #FEA5A5",
"` 	c #FE5555",
" .	c #FF2D2D",
"..	c #FE0E0E",
"+.	c #FE1616",
"@.	c #FF6D6D",
"#.	c #FF8787",
"$.	c #FFEBEB",
"%.	c #FE1E1E",
"&.	c #FE1111",
"*.	c #FF0505",
"=.	c #FFF7F7",
"-.	c #FF0707",
";.	c #FEE9E9",
">.	c #FE1A1A",
",.	c #FE5757",
"'.	c #FF2C2C",
").	c #FF6B6B",
"!.	c #FE1717",
"~.	c #FEBFBF",
"{.	c #FFBDBD",
"].	c #961919",
"^.	c #FE9F9F",
"/.	c #FF1111",
"(.	c #FE1B1B",
"_.	c #FE9797",
":.	c #FE0606",
"<.	c #FE4949",
"[.	c #FE0707",
"}.	c #FE2B2B",
"|.	c #FE2E2E",
"1.	c #FEF6F6",
"2.	c #FF4242",
"3.	c #FE3030",
"4.	c #FE7C7C",
"5.	c #FE0C0C",
"6.	c #FEE2E2",
"7.	c #FEABAB",
"8.	c #FEEBEB",
"9.	c #FE2525",
"0.	c #FE0B0B",
"a.	c #FEA4A4",
"b.	c #FEEFEF",
"c.	c #FE5E5E",
"d.	c #FF5E5E",
"e.	c #941919",
"f.	c #FE5656",
"g.	c #FF8080",
"h.	c #FE1313",
"i.	c #FF7474",
"j.	c #FF9595",
"k.	c #FF7979",
"l.	c #FF1A1A",
"m.	c #FF8A8A",
"n.	c #FF1818",
"o.	c #941616",
"p.	c #E50707",
"q.	c #441515",
"r.	c #D50707",
"s.	c #CE0C0C",
"t.	c #CD0D0D",
"u.	c #561818",
"v.	c #341515",
"                                                                                                                                ",
"                                                                                                                                ",
"                                                                                                                                ",
"                                                                                                                                ",
"                                                                                                                                ",
"                                                                                                                                ",
"                                                                                                                                ",
"                                                                                                                                ",
"                                                                                                                                ",
"                                                                                                                                ",
"                                                                                                                                ",
"                                                                                                                                ",
"                                                                                                                                ",
"                                                                                                                                ",
"                                            . + @ # $ $ $ $ $ # % $ $ $ $ $ & * *                                               ",
"                                          = - ; ; ; ; ; ; ; ; ; ; ; ; ; ; ; ; ; ; >                                             ",
"                                        = , ; ; ; ; ; ; ; ; ; ; ; ; ; ; ; ; ; ; ; ; >                                           ",
"                                      = ' ; ; ; ; ; ; ; ; ; ; ; ; ; ; ; ; ; ; ; ; ; ; >                                         ",
"                                    ) , ; ; ; ; ; ; ; ; ; ; ; ; ; ; ; ; ; ; ; ; ; ; ; ; >                                       ",
"                                  ) ! ; ; ; ; ; ; ; ; ; ; ; ; ; ; ; ; ; ; ; ; ; ; ; ; ; ; >                                     ",
"                                ) ~ ; ; ; ; ; ; ; ; ; ; ; ; ; ; ; ; ; ; ; ; ; ; ; ; ; ; ; ; >                                   ",
"                              { ] ; ; ; ; ; ; ; ; ; ; ; ; ; ; ; ; ; ; ; ; ; ; ; ; ; ; ; ; ; ; >                                 ",
"                            ^ / ~ ( ; ; ; ; ; ; ; ; ; ; ; ; ; ; ; ; ; ; ; ; ; ; ; ; ; ; ; ; ; ; >                               ",
"                          _ ] ; ; ; ; ; ; ; ; ; ; ; ; ; ; ; ; ; ; ; ; ; ; ; ; ; ; ; ; ; ; ; ; ; ; >                             ",
"                        : / ; ; ; ; ; ; ; ; ; ; ; ; ; ; ; ; ; ; ; ; ; ; ; ; ; ; ; ; ; ; ; ; ; ; ; ; >                           ",
"                        < ; ; ; ; ; ; ; ; ; ; ; ; ; ; ; ; ; ; ; ; ; ; ; ; ; ; ; ; ; ; ; ; ; ; ; ; ; ; [                         ",
"                        < ; ; ; ; ; ; ; ; ; ; ; ; ; ; ; ; ; ; ; ; ; ; ; ; ; ; ; ; ; ; ; ; ; ; ; ; ~ ; [                         ",
"                        < ; ; } } } } } } } ; ; ; ; ; ; ; ; ; ; ; ; ; ; ; ; ; ; ; ; ; ; ; | } 1 } ( ~ [                         ",
"                        < ; ; 2 3 4 5 5 6 7 ; ; ; ; ; ; ; ; ; ; ; ; ; ; ; ; ; ; ; ; ; ; | | 8 9 0 ; ; [                         ",
"                        < ; ; ; a b ; ; c 5 ; ; } ; } } ; } } } } ; ; ; ; } ; ; ; } } } } } d 9 e ] ~ [                         ",
"                        < ; ; | 5 b ; f g 1 h i j k l m n o p q l } r s t u v | w x 7 y z A B 9 C ] ; [                         ",
"                        < ; | | 5 D E m F | G 7 9 H I J K 9 L M M N O P | Q R S T H U V D W X 9 r ] ~ [                         ",
"                        < ; | | a U Y Z F | | ` 9  ...N +.9 @.;  .#.9 g | +.9 u | F $.; %.&.*.=.-.~ ~ [                         ",
"                        < ; | | a ;.; >.,.} ; ` 9 '.| | +.9 ).; ; 5 9 !.| } 9 ~.| F b ; | | ; {.; ~ ; [                         ",
"                        ].; | | a b | ; } ^./.` 9 '.; ; +.9 ).| | Y 9 T | (.9 _.; F b | | | :.<.[.; ; [                         ",
"                        < ; | 1 V O }.}.|.1.(.m 9 2.-.; 3.9 4.5.| +.6.7.(.P 8.9.0.a.b.w | | c.9 d.~ ; [                         ",
"                        e.; ; f.g.g.g.g.g.g.'.g.g.g.X ; g.g.g.E | | h.i.j.k.>.| E g.g.g.| | l.m.n.; ; [                         ",
"                        o.; ; ; ; ; ; ; ; ; ; ; ; ; ; ; ; ; ; ; ; ; ; ; ; ; ; ; ; ; ; ; ; ; ; ; ; ; ~ [                         ",
"                        < ; ; ; ; ; ; ; ; ; ; ; ; ; ; ; ; ; ; ; ; ; ; ; ; ; ; ; ; ; ; ; ; ; ; ; ; ~ ; [                         ",
"                          > ; ; ; ; ; ; ; ; ; ; ; ; ; ; ; ; ; ; ; ; ; ; ; ; ; ; ; ; ; ; ; ; ; ; ~ ; ~ [                         ",
"                            > ; ; ; ; ; ; ; ; ; ; ; ; ; ; ; ; ; ; ; ; ; ; ; ; ; ; ; ; ; ; ; ; ; ] ; p.                          ",
"                              > ; ; ; ; ; ; ; ; ; ; ; ; ; ; ; ; ; ; ; ; ; ; ; ; ; ; ; ; ; ; ~ ~ ~ - q.                          ",
"                                > ; ; ; ; ; ; ; ; ; ; ; ; ; ; ; ; ; ; ; ; ; ; ; ; ; ; ; ; ; ; ; - q.                            ",
"                                  r.; ; ; ; ; ; ; ; ; ; ; ; ; ; ; ; ; ; ; ; ; ; ; ; ; ; ; ; ; - q.                              ",
"                                    r.; ; ; ; ; ; ; ; ; ; ; ; ; ; ; ; ; ; ; ; ; ; ; ; ; ~ ~ - q.                                ",
"                                      r.; ; ; ; ; ; ; ; ; ; ; ; ; ; ; ; ; ; ; ; ; ; ; ; ; - q.                                  ",
"                                        > ; ; ; ; ; ; ; ; ; ; ; ; ; ; ; ; ; ; ; ; ; ; ; - q.                                    ",
"                                          > ; ; ; ; ; ; ; ; ; ; ; ; ; ; ; ; ; ; ; ; ~ - q.                                      ",
"                                            s.~ ; ; ; ; ; ; ; ; ; ; ; ; ; ; ; ; ~ ; - q.                                        ",
"                                              t.; ; ; ; ; ; ; ; ; ; ; ; ; ; ; ; ; - q.                                          ",
"                                                u.* * * * * * * * * * * * * * * * v.                                            ",
"                                                                                                                                ",
"                                                                                                                                ",
"                                                                                                                                ",
"                                                                                                                                ",
"                                                                                                                                ",
"                                                                                                                                ",
"                                                                                                                                ",
"                                                                                                                                ",
"                                                                                                                                ",
"                                                                                                                                ",
"                                                                                                                                ",
"                                                                                                                                ",
"                                                                                                                                "};
