/* XPM */
static char * exclamation_xpm[] = {
"64 64 86 1",
" 	c None",
".	c #000000",
"+	c #050000",
"@	c #190000",
"#	c #1D0000",
"$	c #1E0000",
"%	c #2F0000",
"&	c #870000",
"*	c #930000",
"=	c #910000",
"-	c #900000",
";	c #7A0000",
">	c #2E0000",
",	c #B60000",
"'	c #AD0000",
")	c #AA0000",
"!	c #A80000",
"~	c #980000",
"{	c #670000",
"]	c #180000",
"^	c #800000",
"/	c #B10000",
"(	c #A90000",
"_	c #9E0000",
":	c #6C0000",
"<	c #1F0000",
"[	c #1B0000",
"}	c #8B0000",
"|	c #AC0000",
"1	c #9F0000",
"2	c #6B0000",
"3	c #1A0000",
"4	c #890000",
"5	c #9A0000",
"6	c #6F0000",
"7	c #A30000",
"8	c #830000",
"9	c #5C0000",
"0	c #8C0000",
"a	c #6D0000",
"b	c #270000",
"c	c #310000",
"d	c #220000",
"e	c #B50000",
"f	c #590000",
"g	c #8A0000",
"h	c #A00000",
"i	c #260000",
"j	c #880000",
"k	c #700000",
"l	c #840000",
"m	c #600000",
"n	c #5D0000",
"o	c #6E0000",
"p	c #2B0000",
"q	c #A70000",
"r	c #A20000",
"s	c #1C0000",
"t	c #990000",
"u	c #330000",
"v	c #860000",
"w	c #5A0000",
"x	c #710000",
"y	c #950000",
"z	c #790000",
"A	c #580000",
"B	c #040000",
"C	c #300000",
"D	c #B70000",
"E	c #9B0000",
"F	c #730000",
"G	c #2D0000",
"H	c #B90000",
"I	c #A60000",
"J	c #960000",
"K	c #660000",
"L	c #6A0000",
"M	c #7F0000",
"N	c #9C0000",
"O	c #9D0000",
"P	c #560000",
"Q	c #250000",
"R	c #630000",
"S	c #610000",
"T	c #510000",
"U	c #210000",
"                                                                ",
"                                                                ",
"                                                                ",
"                                                                ",
"                                                                ",
"                                                                ",
"                                                                ",
"                                                                ",
"                                                                ",
"                                                                ",
"                                                                ",
"                                                                ",
"                           ...                                  ",
"                         .......                                ",
"                         ..+@##$$                               ",
"                        ..+%&*=-;>                              ",
"                        .+>=,')!~{                              ",
"                       ..]^,/))(_:<                             ",
"                       ..[}|))((12<                             ",
"                       ..34!()(!56                              ",
"                       ..[4!()(789                              ",
"                       ..[0((((1ab                              ",
"                       .+c_|)(!52d                              ",
"                       .]^e')(78f                               ",
"                       .[g|))(h:i                               ",
"                       .[j!(((1:$                               ",
"                       .[j!((!5k                                ",
"                       .[4!((7lm                                ",
"                       .[j!((1k%                                ",
"                       .[4!(!5k                                 ",
"                       .[4!(7lm                                 ",
"                       .[4!(1k%                                 ",
"                      ..[j!!56                                  ",
"                      ..[4!78n                                  ",
"                      ..[j!1op                                  ",
"                      ..[4q5a                                   ",
"                      ..[gr8n                                   ",
"                      ..[g_op                                   ",
"                      ..s0ta                                    ",
"                      .+u5vw                                    ",
"                      .#j|xb                                    ",
"                        yt2d                                    ",
"                        z:A                                     ",
"                                                                ",
"                                                                ",
"                    .....                                       ",
"                   ...+@<$                                      ",
"                  ...+%v=z%                                     ",
"                  ..BC=D|EFG                                    ",
"                  .+G=H/)IJK                                    ",
"                  .]^,/)(!_:<                                   ",
"                  .s&())(!5L<                                   ",
"                   36~I!q_MA                                    ",
"                    %8NO5MPQ                                    ",
"                     o{RSTU                                     ",
"                      <[@                                       ",
"                                                                ",
"                                                                ",
"                                                                ",
"                                                                ",
"                                                                ",
"                                                                ",
"                                                                ",
"                                                                "};
