/* XPM */
static char*question[]={
"48 48 64 1",
"J c #808080",
"7 c #e7e3e7",
"6 c #bebebe",
"g c #8e8a8e",
"A c #969296",
"p c #9e9a9e",
"y c #fffbff",
"b c #a6a2a6",
"# c #a0a0a0",
"K c #aeaaae",
"D c #c3c3c3",
"0 c #414541",
"N c #b6b2b6",
"c c #494d49",
"3 c #bebabe",
"I c #515551",
"l c #595d59",
"4 c #000400",
"f c #616561",
"k c #080c08",
"j c #696d69",
"t c #101410",
"X c #414141",
"r c #717571",
"P c #181c18",
"W c #797d79",
"O c #494949",
"Z c #202420",
"2 c #515151",
"8 c #282c28",
"Q c #595959",
"V c #000000",
"e c #303430",
"B c #616161",
"H c #080808",
"v c #383c38",
"5 c #696969",
"u c #101010",
"C c #717171",
"d c #181818",
"M c #202020",
"G c #282828",
"a c #303030",
"9 c #c7c7c7",
"s c #383838",
"Y c #cfcfcf",
". c #d7d7d7",
"o c #dfdfdf",
"S c #868686",
"L c #e7e7e7",
"q c #8e8e8e",
"i c #585858",
"n c #efefef",
"w c #969696",
"E c #f7f7f7",
"F c #9e9e9e",
"R c #dcdcdc",
"x c #ffffff",
"m c #cfcbcf",
"U c #a6a6a6",
"z c #d7d3d7",
"1 c #aeaeae",
"T c #868286",
"h c #b6b6b6",
"................................................",
"...................##abcdddeffgh................",
"................##iajdklmnopqrstuvjw............",
"...............#iaq#xxyxxxxxxxxxzABdkC..........",
".............Diai#xxExxxxxxxxxxxxxxxFGHI........",
"............JaiKxxLxxxxxxxxxxxxxxxxxxxmMGN......",
"...........aih#xxxxxxxxxxxxxxxxxxxxxxxxxOPN.....",
"..........aiqxxxxxxxxxxxxxxxxxxxxxxxxxxxxQP.....",
"........RaiSxxxxxxxxxxxxxxxxxxxxxxxxxxxxxxdC....",
"........aiTxxxxxxxRDJJJJDRxxxxxxxxxxxxxxxxUH....",
".......DiBxxxxxxx#VVVVVVV#DxxxxxxxxxxxxxxxxGS...",
".......aB#xxxxxxVViiiiiiiVV#xxxxxxxxxxxxxxxWX...",
"......DT#xxxxxx#ViaaaaaaViVVDxxxxxxxxxxxxxxYZ...",
"......DuwxxxxxxViaaRxxxRaViV#xxxxxxxxxxxxxxoZ...",
"......Ktxxxxxx#VVaRxxxxxxaViVRxxxxxxxxxxxxxoZ...",
"......A0xxxxxxViaaxxxxxxxRaiV#xxxxxxxxxxxxxoZ...",
"......CfxxxxxxViaRxxxxxxxxaiVixxxxxxxxxxxxx1G...",
"......IWxxxxxxViaxxxxxxxxRaiV#xxxxxxxxxxxxx2Q...",
"......c1xxxxxxVVVxxxxxxxRaiVVRxxxxxxxxxxxx341...",
"......c1xxxxxxRa#xxxxxxRaiVVVxxxxxxxxxxxxzPf....",
"......c1xxxxxxxxxxxxxRVViVVVDxxxxxxxxxxxhPX.....",
"......c1xxxxxxxxxxxRVViiVVVxxxxxxxxxxxxb45......",
"......c1xxxxxxxxxxxVViVViDxxxxxxxxxxxzOHW.......",
"......c1xxxxxxxxxxRViVVDxxxxxxxxxxx6B4Oh........",
"......c1xxxxxxxxxxVVaVixxxxxxxxxxx04IU..........",
"......cqxxxxxxxxxxVVaixxxxxxxxxxzdeN............",
"......CjxxxxxxxxxxiVaVxxxxxxxxxxec..............",
"......qdxxxxxxxxxxiVaVxxxxxxxxxxuY..............",
".......thxxxxxxxxxxVaVVxxxxxxxxlQ...............",
".......l2xxxxxxxxxxiiVixxxxxxxxPF...............",
".......UHxxxxxxxxxxxiVVxxxxxxxxH................",
"........Ppxxxxxxxxxxxxxxxxxxxxxt................",
"........TH7xxxxxxxxxxxxxxxxxxxxH................",
".........v8xxxxxxxxxxiVixxxxxxx8C...............",
"..........PrxxxxxxxxxVVVxxxxxxxFu...............",
"..........p4QxxxxxxxxiVixxxxxxxxGj..............",
"...........NGtYxxxxxxxxxxxxxxxxxh4w.............",
".............Q4loxxxxxxxxxxxxxxxxTtb............",
"..............Ustqxxxxxxxxxxxxxxxx5dN...........",
"................TPM6xxxxxxxxxxxxxxxcdF..........",
"..................QkGT9xxxxxxxxxxxxxC4T.........",
"....................SXdHvvvOjF6xxxxxxb42........",
".......................NUUUTfOdHu882BUAVMA......",
"................................hhbqfXsdHV81....",
".........................................FCN....",
"................................................",
"................................................",
"................................................"};
